<?xml version="1.0" encoding="UTF-8"?>
<svg version="1.1" xmlns="http://www.w3.org/2000/svg" width="736" height="737">
<path d="M0 0 C242.88 0 485.76 0 736 0 C736 243.21 736 486.42 736 737 C493.12 737 250.24 737 0 737 C0 493.79 0 250.58 0 0 Z " fill="#FEFEFE" transform="translate(0,0)"/>
<path d="M0 0 C0.70205566 0.30309082 1.40411133 0.60618164 2.12744141 0.91845703 C11.71172887 5.09393731 20.55629125 9.77123514 29 16 C30.27230469 16.93779297 30.27230469 16.93779297 31.5703125 17.89453125 C54.77655214 35.75387869 73.05163324 62.48498014 80.24609375 91.01953125 C80.95536769 94.00683381 80.95536769 94.00683381 82 96.8671875 C83.20685218 100.64802909 83.90139941 104.40536055 84.5625 108.3125 C84.68818359 109.02083984 84.81386719 109.72917969 84.94335938 110.45898438 C85.32036974 112.63616986 85.66810856 114.81549739 86 117 C86.10006348 117.65097656 86.20012695 118.30195313 86.30322266 118.97265625 C87.33018934 126.7294929 87.24289429 134.56436197 87.25 142.375 C87.25100708 143.14467102 87.25201416 143.91434204 87.25305176 144.70733643 C87.20004276 205.03002149 70.18558649 275.69449091 28.02734375 320.81640625 C26.20341577 322.78090671 24.51141923 324.80325061 22.8125 326.875 C-6.79564181 360.53905165 -53.63857083 376.2594079 -96.07373047 385.57519531 C-97.87613847 385.97268453 -99.67458129 386.38803571 -101.47265625 386.8046875 C-113.18536326 389.36642951 -125.04898096 390.66001313 -136.9720459 391.80279541 C-139.0202952 392.00197357 -141.06721358 392.2121674 -143.11425781 392.42333984 C-184.55521728 396.60555797 -226.40800748 395.28648142 -268 395 C-267.85950482 393.52031676 -267.71245174 392.04125484 -267.5625 390.5625 C-267.48128906 389.73878906 -267.40007812 388.91507813 -267.31640625 388.06640625 C-267 386 -267 386 -266 385 C-265.58987055 382.79792031 -265.22525851 380.58739239 -264.875 378.375 C-263.36464303 369.34440608 -261.34388477 360.4462859 -259.29669189 351.52444458 C-256.52781192 339.44871336 -253.92039945 327.3442714 -251.39746094 315.21484375 C-249.96621337 308.37760863 -248.42857679 301.59233728 -246.70166016 294.82397461 C-245.53214861 290.11703651 -244.55549914 285.37172959 -243.5625 280.625 C-240.51305714 266.22855801 -237.32230323 251.8642142 -234.125 237.5 C-233.86322968 236.32327728 -233.60145935 235.14655457 -233.33175659 233.93417358 C-230.96052396 223.27535377 -228.5870946 212.61703084 -226.20124817 201.96147156 C-222.71298632 186.38183174 -219.29002478 170.79723937 -216.08984375 155.15527344 C-213.82421453 144.08201061 -211.43181488 133.03782823 -209 122 C-208.34 122 -207.68 122 -207 122 C-204.96016987 148.52605955 -204.78751648 175.10147391 -204.75976562 201.69213867 C-204.75538894 205.25995143 -204.74148385 208.8275213 -204.71875 212.39526367 C-204.55622454 238.45896645 -205.23163153 264.37345265 -208.5355072 290.26156616 C-209.23666749 295.90479973 -209.26476509 301.50704629 -209.3125 307.1875 C-209.35600586 308.93063477 -209.35600586 308.93063477 -209.40039062 310.70898438 C-209.41295898 312.39024414 -209.41295898 312.39024414 -209.42578125 314.10546875 C-209.44036377 315.11762451 -209.45494629 316.12978027 -209.4699707 317.17260742 C-208.86930724 320.78626124 -207.54347664 322.40616309 -205 325 C-198.77192979 328.00073504 -192.51064283 328.88902964 -185.6875 329.6875 C-184.63151611 329.8127002 -183.57553223 329.93790039 -182.48754883 330.06689453 C-142.67899417 334.4797273 -106.54571516 321.76221737 -75.046875 297.45703125 C-64.39737846 288.86916802 -54.19287072 280.25208297 -45.75 269.4375 C-45.32493164 268.89488525 -44.89986328 268.35227051 -44.46191406 267.79321289 C-35.63368404 256.21713482 -37.90468566 245.80797889 -39.375 232 C-42.91279548 196.73816766 -43.32589579 161.40983124 -43 126 C-41 127 -41 127 -39.84375 130.0859375 C-39.39018044 131.51384168 -38.94280131 132.94371991 -38.5 134.375 C-35.77593899 142.88124922 -32.74440504 151.25621427 -29.625 159.625 C-29.17189453 160.84106934 -28.71878906 162.05713867 -28.25195312 163.31005859 C-27.1702979 166.207586 -26.0864621 169.10427223 -25 172 C-18.23015273 172.55461688 -13.84137109 171.58079158 -8.0625 168.0625 C-7.3701123 167.65281982 -6.67772461 167.24313965 -5.96435547 166.82104492 C5.88080641 159.61088632 19.1401613 147.37685478 22.65625 133.3125 C25.53652249 113.93612142 14.82545835 98.53107676 4.07421875 83.265625 C-12.15384199 61.99887302 -37.42280427 42.12891936 -64.33984375 37.30859375 C-70.17610237 36.63155347 -76.38142504 36.12714168 -82 38 C-83.37391911 40.48364336 -83.37391911 40.48364336 -84.625 43.5 C-90.38794677 55.34918079 -99.09685348 61.16973764 -111 66 C-124.07283546 69.74131065 -138.7256852 67.28789344 -150.5625 61.3125 C-159.73298325 56.04820284 -166.69302998 49.18054621 -172 40 C-172 39.34 -172 38.68 -172 38 C-197.65224768 39.7448737 -217.24141723 47.37138358 -236 65 C-236.49483887 65.45777832 -236.98967773 65.91555664 -237.49951172 66.38720703 C-245.22890138 73.58498733 -251.69960287 81.56696335 -258 90 C-258.64839844 90.85335937 -259.29679687 91.70671875 -259.96484375 92.5859375 C-265.1128298 99.61334702 -269.21755301 107.17102541 -273 115 C-273.53367187 116.10085938 -274.06734375 117.20171875 -274.6171875 118.3359375 C-279.17842135 129.18497395 -280.28724798 142.08807993 -276.99609375 153.47265625 C-273.55692024 160.43918721 -267.90217095 165.12385188 -262 170 C-259.09615887 172.66966039 -257.61669115 175.38169123 -256 179 C-256 179.66 -256 180.32 -256 181 C-276.33816843 181.51272694 -297.82206009 179.10218971 -313.48828125 164.71484375 C-323.66477634 152.92850763 -325.80646932 138.39543006 -325.17919922 123.36279297 C-322.91721853 93.53793041 -303.70050437 68.3922173 -281.82421875 49.33203125 C-251.42211276 24.22821759 -215.08091044 6.95022886 -177 -3 C-176.22720703 -3.2057666 -175.45441406 -3.4115332 -174.65820312 -3.62353516 C-159.93672335 -7.49714648 -145.08397582 -10.0106156 -130 -12 C-128.67838867 -12.18006592 -128.67838867 -12.18006592 -127.33007812 -12.36376953 C-86.5166366 -17.70838687 -38.03103884 -16.73749377 0 0 Z " fill="#020202" transform="translate(487,178)"/>
<path d="M0 0 C0.84052006 4.4261744 1.15956471 8.66583669 1.24609375 13.16796875 C1.27768215 14.61108727 1.30942817 16.05420235 1.34130859 17.49731445 C1.35667664 18.25903961 1.37204468 19.02076477 1.38787842 19.80557251 C1.9999191 49.18465463 2.91842333 78.61011722 6.03466797 107.84301758 C7.58184855 122.50140865 7.83218716 130.52679804 -1.6015625 142.26953125 C-9.58169541 151.99161954 -18.13153717 160.20285892 -28 168 C-28.88171875 168.71027344 -29.7634375 169.42054688 -30.671875 170.15234375 C-45.41876606 181.67074877 -61.53840019 190.38461067 -79 197 C-80.051875 197.41894531 -81.10375 197.83789062 -82.1875 198.26953125 C-101.29218605 205.35418566 -121.76094932 205.05004366 -141.6875 202.6875 C-143.19316528 202.51130127 -143.19316528 202.51130127 -144.72924805 202.33154297 C-159.12623123 200.43838018 -159.12623123 200.43838018 -164 195.125 C-166.02489268 191.96110519 -166.53674055 190.64983572 -166 187 C-165.67 188.32 -165.34 189.64 -165 191 C-149.36609704 188.84960594 -149.36609704 188.84960594 -133.875 185.875 C-128.89332582 184.83984692 -124.06926377 184.80585798 -119 185 C-119 184.34 -119 183.68 -119 183 C-117.24623047 182.72736328 -117.24623047 182.72736328 -115.45703125 182.44921875 C-113.90876352 182.19586585 -112.3605913 181.94192874 -110.8125 181.6875 C-109.65911133 181.51057617 -109.65911133 181.51057617 -108.48242188 181.33007812 C-103.97937152 180.57634867 -100.86375476 179.54055107 -97 177 C-95.24889371 176.37880463 -93.47671123 175.81347915 -91.6875 175.3125 C-90.36298828 174.93544922 -90.36298828 174.93544922 -89.01171875 174.55078125 C-88.01591797 174.27814453 -88.01591797 174.27814453 -87 174 C-87 173.34 -87 172.68 -87 172 C-85.02 171.67 -83.04 171.34 -81 171 C-81 170.34 -81 169.68 -81 169 C-77.66666667 167.66666667 -74.33333333 166.33333333 -71 165 C-71 164.34 -71 163.68 -71 163 C-70.01 162.67 -69.02 162.34 -68 162 C-66.8553125 160.7934375 -66.8553125 160.7934375 -65.6875 159.5625 C-62.789253 156.79905518 -60.72041941 156.2401398 -57 155 C-55.6830333 153.11629529 -55.6830333 153.11629529 -55 151 C-54.34 150.01 -53.68 149.02 -53 148 C-52.01 148 -51.02 148 -50 148 C-50 147.34 -50 146.68 -50 146 C-49.1646875 145.6596875 -49.1646875 145.6596875 -48.3125 145.3125 C-45.36276727 143.63832737 -43.3626116 141.42167689 -41 139 C-38.76821667 137.11693282 -37.03943535 136.01559072 -34.3125 134.9375 C-31.84061395 134.23196154 -31.84061395 134.23196154 -31 132 C-30.34 132 -29.68 132 -29 132 C-29 131.34 -29 130.68 -29 130 C-28.40574219 129.47019531 -27.81148437 128.94039062 -27.19921875 128.39453125 C-24.22636594 125.15765954 -23.18422058 121.80978757 -21.8125 117.6875 C-21.55275391 116.95337891 -21.29300781 116.21925781 -21.02539062 115.46289062 C-19.48671985 110.98205867 -18.58046368 106.71993192 -18 102 C-17.67 101.01 -17.34 100.02 -17 99 C-16.72116443 96.28719268 -16.48393973 93.58572963 -16.28125 90.8671875 C-16.15236429 89.24088379 -16.02345741 87.61458176 -15.89453125 85.98828125 C-15.69581998 83.42278558 -15.49863584 80.8571783 -15.30224609 78.29150391 C-15.1114911 75.81642231 -14.91534037 73.34181134 -14.71875 70.8671875 C-14.661427 70.09430389 -14.604104 69.32142029 -14.54504395 68.52511597 C-14.11298745 63.11298745 -14.11298745 63.11298745 -13 62 C-12.55184266 58.66706516 -12.17983366 55.33532925 -11.83789062 51.99023438 C-11.2052068 46.36809278 -11.2052068 46.36809278 -9.98193359 44.17382812 C-8.630633 41.18228648 -8.72565765 38.63820795 -8.69140625 35.36328125 C-8.66626953 34.06326172 -8.64113281 32.76324219 -8.61523438 31.42382812 C-8.5866633 29.37476899 -8.56262265 27.3257824 -8.54370117 25.27661133 C-8.45519788 17.24226296 -8.08641108 10.46499961 -5 3 C-4.34 3 -3.68 3 -3 3 C-3 2.34 -3 1.68 -3 1 C-1 0 -1 0 0 0 Z " fill="#E5E5E5" transform="translate(443,306)"/>
<path d="M0 0 C0.66 0 1.32 0 2 0 C4.03983013 26.52605955 4.21248352 53.10147391 4.24023438 79.69213867 C4.24461106 83.25995143 4.25851615 86.8275213 4.28125 90.39526367 C4.44381744 116.46569791 3.75353218 142.37768341 0.46626282 168.27381897 C0.06619244 171.47101722 -0.18845923 174.59554626 -0.31640625 177.8125 C-0.37924805 179.33037109 -0.37924805 179.33037109 -0.44335938 180.87890625 C-0.48267578 181.90886719 -0.52199219 182.93882812 -0.5625 184 C-0.60568359 185.06089844 -0.64886719 186.12179687 -0.69335938 187.21484375 C-0.79855996 189.80979151 -0.90070119 192.40482084 -1 195 C-1.33 195 -1.66 195 -2 195 C-2 190.05 -2 185.1 -2 180 C-7.94 180 -13.88 180 -20 180 C-20 191.55 -20 203.1 -20 215 C-20.33 215 -20.66 215 -21 215 C-21 203.45 -21 191.9 -21 180 C-26.61 180 -32.22 180 -38 180 C-37.4003841 172.75189572 -36.26184335 165.84495305 -34.6875 158.75 C-34.43532715 157.59306641 -34.1831543 156.43613281 -33.92333984 155.24414062 C-33.1479168 151.69350138 -32.36295429 148.14502081 -31.57598877 144.59692383 C-30.94029547 141.730814 -30.3058226 138.86443529 -29.67138672 135.99804688 C-25.53433873 117.31482898 -21.38234237 98.63488513 -17.20124817 79.96147156 C-13.71298632 64.38183174 -10.29002478 48.79723937 -7.08984375 33.15527344 C-4.82421453 22.08201061 -2.43181488 11.03782823 0 0 Z " fill="#040404" transform="translate(278,300)"/>
<path d="M0 0 C26.10763253 1.50620957 50.3669944 23.69972414 67 42 C69.64218682 45.19264241 71.86302949 48.45433002 74 52 C74.73065085 53.15045165 75.46251652 54.30013228 76.1953125 55.44921875 C84.41819433 68.52302154 91.51482166 80.81115752 88.47265625 96.765625 C83.81438263 112.61766061 69.00470664 125.13920777 55.3125 133.125 C49.85179922 135.93430028 46.07218024 136.72042816 40 136 C36.83993951 128.70419214 33.94977263 121.32912055 31.1875 113.875 C30.87353271 113.03348389 30.55956543 112.19196777 30.23608398 111.32495117 C29.80017944 110.13929565 29.80017944 110.13929565 29.35546875 108.9296875 C29.09403076 108.22054199 28.83259277 107.51139648 28.56323242 106.78076172 C28 105 28 105 28 103 C28.66 103 29.32 103 30 103 C30 103.66 30 104.32 30 105 C36.4884585 107.93441997 43.54380142 108.10344413 50.3125 105.8125 C54.13949995 104.17797025 56.89572496 101.73471849 60 99 C60.66 99 61.32 99 62 99 C62.185625 98.0409375 62.185625 98.0409375 62.375 97.0625 C62.58125 96.381875 62.7875 95.70125 63 95 C63.66 94.67 64.32 94.34 65 94 C65.72159424 92.35636866 66.39351421 90.68949614 67 89 C67.66 89 68.32 89 69 89 C69.65131003 77.29451134 67.47624987 70.48308017 61 61 C61 60.34 61 59.68 61 59 C60.34 59 59.68 59 59 59 C58.67 65.6 58.34 72.2 58 79 C57.34 79 56.68 79 56 79 C55.99589111 78.24380371 55.99178223 77.48760742 55.98754883 76.70849609 C55.95453795 73.26321716 55.88388303 69.81968877 55.8125 66.375 C55.80669922 65.18519531 55.80089844 63.99539063 55.79492188 62.76953125 C55.79523308 55.48131454 55.79523308 55.48131454 52.44921875 49.2890625 C51.64097656 48.53367187 50.83273437 47.77828125 50 47 C50 46.34 50 45.68 50 45 C40.43 44.67 30.86 44.34 21 44 C21.33 43.01 21.66 42.02 22 41 C29.59 41 37.18 41 45 41 C43.35 39.35 41.7 37.7 40 36 C40 35.01 40 34.02 40 33 C39.34 33 38.68 33 38 33 C38 32.34 38 31.68 38 31 C37.38125 30.690625 36.7625 30.38125 36.125 30.0625 C34.75 29.375 33.375 28.6875 32 28 C32 27.01 32 26.02 32 25 C31.34 25 30.68 25 30 25 C30 24.34 30 23.68 30 23 C29.44570313 22.75378906 28.89140625 22.50757813 28.3203125 22.25390625 C25.554534 20.75926837 23.30223137 18.9336261 20.875 16.9375 C17.61448977 14.19551253 17.61448977 14.19551253 14 12 C14 11.34 14 10.68 14 10 C13.43667969 9.731875 12.87335938 9.46375 12.29296875 9.1875 C9.85576885 7.92530448 7.60168045 6.51350774 5.3125 5 C4.52488281 4.484375 3.73726563 3.96875 2.92578125 3.4375 C1 2 1 2 0 0 Z " fill="#E4E4E4" transform="translate(422,215)"/>
<path d="M0 0 C0.66 0 1.32 0 2 0 C3.63652064 21.24866427 4.09279817 42.50872612 4.125 63.8125 C4.1275882 64.61737854 4.13017639 65.42225708 4.13284302 66.25152588 C4.13864856 68.52840735 4.1371482 70.80514904 4.1328125 73.08203125 C4.13168457 74.39405518 4.13055664 75.7060791 4.12939453 77.05786133 C4 80 4 80 3 81 C1.48071962 81.07179964 -0.04167482 81.08392007 -1.5625 81.0625 C-2.80193359 81.04896484 -2.80193359 81.04896484 -4.06640625 81.03515625 C-5.02353516 81.01775391 -5.02353516 81.01775391 -6 81 C-6.66 79.35 -7.32 77.7 -8 76 C-4.7 76.33 -1.4 76.66 2 77 C2 75.68 2 74.36 2 73 C-1.96 73.99 -1.96 73.99 -6 75 C-6 74.34 -6 73.68 -6 73 C-7.32 72.67 -8.64 72.34 -10 72 C-10 72.66 -10 73.32 -10 74 C-11.65 74 -13.3 74 -15 74 C-15.33 74.99 -15.66 75.98 -16 77 C-15.39662697 72.49649172 -14.64221067 68.08639593 -13.65234375 63.65234375 C-13.38043213 62.42451172 -13.10852051 61.19667969 -12.82836914 59.93164062 C-12.68335968 59.28171143 -12.53835022 58.63178223 -12.38894653 57.9621582 C-11.60440823 54.44364207 -10.82910975 50.92309832 -10.0546875 47.40234375 C-9.89067947 46.65689301 -9.72667145 45.91144226 -9.55769348 45.1434021 C-7.50287277 35.77425925 -5.53235678 26.38730521 -3.5625 17 C-3.38347137 16.14719452 -3.20444275 15.29438904 -3.01998901 14.41574097 C-2.01158535 9.61085746 -1.00497237 4.8056023 0 0 Z " fill="#0D0D0D" transform="translate(278,300)"/>
<path d="M0 0 C0.66 0.33 1.32 0.66 2 1 C1.50886719 1.46921875 1.01773437 1.9384375 0.51171875 2.421875 C-1.75197152 6.28243205 -1.31998401 9.86825757 -1.1875 14.25 C-1.125625 17.1375 -1.06375 20.025 -1 23 C9.89 23 20.78 23 32 23 C31.505 24.485 31.505 24.485 31 26 C19.78 26 8.56 26 -3 26 C-3 37.22 -3 48.44 -3 60 C-3.33 60 -3.66 60 -4 60 C-4 48.78 -4 37.56 -4 26 C-8.6096875 25.9071875 -8.6096875 25.9071875 -13.3125 25.8125 C-14.75943237 25.77153198 -14.75943237 25.77153198 -16.2355957 25.72973633 C-16.99960693 25.72224365 -17.76361816 25.71475098 -18.55078125 25.70703125 C-19.72120972 25.68346558 -19.72120972 25.68346558 -20.9152832 25.65942383 C-23.49903853 26.08152696 -24.36292167 27.01489942 -26 29 C-26.66 28.67 -27.32 28.34 -28 28 C-25.6478496 25.477279 -23.29290413 22.95718302 -20.9375 20.4375 C-20.28072266 19.73302734 -19.62394531 19.02855469 -18.94726562 18.30273438 C-12.90991743 11.84901734 -6.8918858 5.5471276 0 0 Z " fill="#E9E9E9" transform="translate(261,233)"/>
<path d="M0 0 C0.66 0 1.32 0 2 0 C2 11.88 2 23.76 2 36 C13.55 36 25.1 36 37 36 C37.33 36.66 37.66 37.32 38 38 C26.12 38 14.24 38 2 38 C2 49.88 2 61.76 2 74 C1.34 74 0.68 74 0 74 C0 62.12 0 50.24 0 38 C-11.88 38 -23.76 38 -36 38 C-36 37.34 -36 36.68 -36 36 C-18.675 35.505 -18.675 35.505 -1 35 C-0.67 23.45 -0.34 11.9 0 0 Z " fill="#1D1D1D" transform="translate(478,442)"/>
<path d="M0 0 C4.62 0 9.24 0 14 0 C13.67 1.98 13.34 3.96 13 6 C12.7018576 9.7763932 12.7018576 9.7763932 14 12 C14.07092842 14.2072923 14.08415025 16.41667452 14.0625 18.625 C14.05347656 19.81351563 14.04445313 21.00203125 14.03515625 22.2265625 C14.02355469 23.14179688 14.01195312 24.05703125 14 25 C11.85423363 25.02685938 9.70837355 25.04633088 7.5625 25.0625 C6.36753906 25.07410156 5.17257812 25.08570313 3.94140625 25.09765625 C1 25 1 25 0 24 C-0.15135944 22.2127943 -0.22175778 20.41838124 -0.25 18.625 C-0.28867187 17.15933594 -0.28867187 17.15933594 -0.328125 15.6640625 C0 13 0 13 1.34765625 11.19140625 C3.4879302 9.64818272 5.41170373 9.34976977 8 9 C8.33 7.35 8.66 5.7 9 4 C6.03 4 3.06 4 0 4 C0 2.68 0 1.36 0 0 Z " fill="#1A1A1A" transform="translate(362,186)"/>
<path d="M0 0 C3.75154135 3.75154135 3.68048382 8.94283015 4 14 C1.96044851 14.36615094 -0.08178248 14.71739279 -2.125 15.0625 C-3.26195312 15.25972656 -4.39890625 15.45695313 -5.5703125 15.66015625 C-8.9753892 15.99756134 -11.67178131 15.72330588 -15 15 C-15.33 13.35 -15.66 11.7 -16 10 C-14.35 9.67 -12.7 9.34 -11 9 C-11.061875 7.88625 -11.12375 6.7725 -11.1875 5.625 C-11.125625 4.42875 -11.06375 3.2325 -11 2 C-7.2404004 -0.50639973 -4.42043712 -0.86747618 0 0 Z " fill="#191919" transform="translate(373,552)"/>
<path d="M0 0 C1.0209375 0.00580078 1.0209375 0.00580078 2.0625 0.01171875 C4 0.3125 4 0.3125 7 2.3125 C7.40843923 5.02453652 7.13336867 7.5562142 7 10.3125 C8.32 10.3125 9.64 10.3125 11 10.3125 C11.33 11.3025 11.66 12.2925 12 13.3125 C5.16175638 15.83936664 0.20137405 16.59016314 -7 15.3125 C-7.08107583 13.37568839 -7.13922475 11.4379066 -7.1875 9.5 C-7.22230469 8.42105469 -7.25710938 7.34210938 -7.29296875 6.23046875 C-7 3.3125 -7 3.3125 -5.73828125 1.4453125 C-3.65016838 0.08451984 -2.47648604 -0.06097409 0 0 Z " fill="#1A1A1A" transform="translate(369,228.6875)"/>
<path d="M0 0 C1.32 0 2.64 0 4 0 C4 1.65 4 3.3 4 5 C4.66 4.67 5.32 4.34 6 4 C7.99960012 3.960008 10.00047242 3.95653201 12 4 C12 4.66 12 5.32 12 6 C12.66 6 13.32 6 14 6 C14.08090971 7.62418745 14.13914995 9.24951745 14.1875 10.875 C14.22230469 11.77992188 14.25710938 12.68484375 14.29296875 13.6171875 C14.19628906 14.40351563 14.09960938 15.18984375 14 16 C9.34386481 19.10409013 5.47026886 17.64356104 0 17 C0 11.39 0 5.78 0 0 Z " fill="#191919" transform="translate(522,357)"/>
<path d="M0 0 C0 4.29 0 8.58 0 13 C-9.14634146 14.82926829 -9.14634146 14.82926829 -13.375 12.9375 C-15 11 -15 11 -15.3125 7.5 C-15 4 -15 4 -14 1 C-9.36297289 -0.5456757 -4.87528349 -0.05735628 0 0 Z " fill="#171717" transform="translate(563,361)"/>
<path d="M0 0 C0.02684679 2.64590014 0.04676357 5.29153096 0.0625 7.9375 C0.07087891 8.69224609 0.07925781 9.44699219 0.08789062 10.22460938 C0.09652441 12.14994313 0.05224333 14.07535581 0 16 C-1 17 -1 17 -4.59765625 17.09765625 C-6.08596867 17.0909822 -7.57426432 17.07902183 -9.0625 17.0625 C-9.82111328 17.05798828 -10.57972656 17.05347656 -11.36132812 17.04882812 C-13.24091871 17.0370068 -15.12046899 17.01907078 -17 17 C-16.55878495 12.18123956 -14.60600417 10.12089129 -11.1875 6.8125 C-10.31480469 5.95269531 -9.44210938 5.09289062 -8.54296875 4.20703125 C-5.81419958 1.83874464 -3.6886337 0 0 0 Z " fill="#F8F8F8" transform="translate(257,240)"/>
<path d="M0 0 C5.94 0 11.88 0 18 0 C18 1.32 18 2.64 18 4 C16.35 4 14.7 4 13 4 C13.33 4.66 13.66 5.32 14 6 C14.1875 9 14.1875 9 14 12 C12 14 12 14 8.625 14.25 C3.21843003 13.87713311 3.21843003 13.87713311 1 12 C-0.12533346 7.8737773 0 4.34189076 0 0 Z " fill="#1A1A1A" transform="translate(362,170)"/>
<path d="M0 0 C0 4.95 0 9.9 0 15 C-10.48015753 15.36988791 -10.48015753 15.36988791 -12.828125 13.69921875 C-14.82626033 10.80192252 -14.41023845 8.39911856 -14 5 C-10.95024644 -1.5153826 -6.39292965 -0.42058748 0 0 Z " fill="#1A1A1A" transform="translate(497,360)"/>
<path d="M0 0 C4.62 0 9.24 0 14 0 C14 3.3 14 6.6 14 10 C13.34 10 12.68 10 12 10 C11.67 11.32 11.34 12.64 11 14 C8.36 14 5.72 14 3 14 C0.28762657 8.46223757 0 6.7627065 0 0 Z " fill="#1B1B1B" transform="translate(362,526)"/>
<path d="M0 0 C2 1 2 1 3 3 C3.52265149 6.5838959 3.66071832 9.75629493 1.9375 13 C-1.14126742 14.58904125 -3.60155579 14.35773097 -7 14 C-9.4375 13 -9.4375 13 -11 11 C-11.65289471 7.43875614 -11.63208836 4.26417672 -10 1 C-6.73794446 -0.63102777 -3.56444611 -0.51981506 0 0 Z " fill="#171717" transform="translate(517,361)"/>
<path d="M0 0 C3.625 -0.1875 3.625 -0.1875 7 0 C7 0.66 7 1.32 7 2 C6.01 2.33 5.02 2.66 4 3 C3.67 4.98 3.34 6.96 3 9 C4.65 8.67 6.3 8.34 8 8 C8.33 5.36 8.66 2.72 9 0 C9.66 0 10.32 0 11 0 C11.02683987 2.97922593 11.04676037 5.95821295 11.0625 8.9375 C11.07087891 9.78763672 11.07925781 10.63777344 11.08789062 11.51367188 C11.09111328 12.32255859 11.09433594 13.13144531 11.09765625 13.96484375 C11.10289307 14.7137085 11.10812988 15.46257324 11.11352539 16.23413086 C11 18 11 18 10 19 C8.48071962 19.07179964 6.95832518 19.08392007 5.4375 19.0625 C4.61121094 19.05347656 3.78492188 19.04445313 2.93359375 19.03515625 C1.97646484 19.01775391 1.97646484 19.01775391 1 19 C0.34 17.35 -0.32 15.7 -1 14 C2.3 14.33 5.6 14.66 9 15 C9 13.68 9 12.36 9 11 C6.36 11.66 3.72 12.32 1 13 C1 12.34 1 11.68 1 11 C0.34 11 -0.32 11 -1 11 C-2.38550197 8.22899606 -2.1877467 6.0665294 -2 3 C-1.34 2.01 -0.68 1.02 0 0 Z " fill="#1A1A1A" transform="translate(271,362)"/>
<path d="M0 0 C1.09054687 0.02320313 2.18109375 0.04640625 3.3046875 0.0703125 C4.40039062 0.08835937 5.49609375 0.10640625 6.625 0.125 C7.46804688 0.14820313 8.31109375 0.17140625 9.1796875 0.1953125 C9.1796875 1.8453125 9.1796875 3.4953125 9.1796875 5.1953125 C4.7246875 5.6903125 4.7246875 5.6903125 0.1796875 6.1953125 C-0.1503125 7.5153125 -0.4803125 8.8353125 -0.8203125 10.1953125 C2.4796875 10.1953125 5.7796875 10.1953125 9.1796875 10.1953125 C9.1796875 11.5153125 9.1796875 12.8353125 9.1796875 14.1953125 C4.5596875 14.1953125 -0.0603125 14.1953125 -4.8203125 14.1953125 C-5.015625 5.015625 -5.015625 5.015625 -4.8203125 2.1953125 C-2.8203125 0.1953125 -2.8203125 0.1953125 0 0 Z " fill="#191919" transform="translate(366.8203125,508.8046875)"/>
<path d="M0 0 C4.62 0 9.24 0 14 0 C14 3.96 14 7.92 14 12 C13.34 12 12.68 12 12 12 C12 12.66 12 13.32 12 14 C8.37 14 4.74 14 1 14 C1 12.68 1 11.36 1 10 C3.97 10 6.94 10 10 10 C10 8.35 10 6.7 10 5 C6.7 5 3.4 5 0 5 C0 3.35 0 1.7 0 0 Z " fill="#181818" transform="translate(362,213)"/>
<path d="M0 0 C1.37478516 0.01740234 1.37478516 0.01740234 2.77734375 0.03515625 C3.69644531 0.04417969 4.61554688 0.05320312 5.5625 0.0625 C6.27277344 0.07410156 6.98304688 0.08570313 7.71484375 0.09765625 C8.04484375 1.41765625 8.37484375 2.73765625 8.71484375 4.09765625 C6.40484375 3.76765625 4.09484375 3.43765625 1.71484375 3.09765625 C1.71484375 4.08765625 1.71484375 5.07765625 1.71484375 6.09765625 C2.66359375 6.22140625 3.61234375 6.34515625 4.58984375 6.47265625 C7.71484375 7.09765625 7.71484375 7.09765625 9.71484375 9.09765625 C9.83984375 12.22265625 9.83984375 12.22265625 9.71484375 15.09765625 C6.24159194 16.25540685 3.35416927 16.16632277 -0.28515625 16.09765625 C-0.28515625 15.43765625 -0.28515625 14.77765625 -0.28515625 14.09765625 C-0.94515625 14.09765625 -1.60515625 14.09765625 -2.28515625 14.09765625 C-2.28515625 13.43765625 -2.28515625 12.77765625 -2.28515625 12.09765625 C0.02484375 12.42765625 2.33484375 12.75765625 4.71484375 13.09765625 C4.71484375 12.10765625 4.71484375 11.11765625 4.71484375 10.09765625 C3.76609375 9.95328125 2.81734375 9.80890625 1.83984375 9.66015625 C-1.28515625 9.09765625 -1.28515625 9.09765625 -3.28515625 8.09765625 C-3.32757348 5.7647085 -3.32608562 3.43063058 -3.28515625 1.09765625 C-2.28515625 0.09765625 -2.28515625 0.09765625 0 0 Z " fill="#191919" transform="translate(456.28515625,357.90234375)"/>
<path d="M0 0 C0.33 0 0.66 0 1 0 C1 11.88 1 23.76 1 36 C7.27 36 13.54 36 20 36 C20 41.28 20 46.56 20 52 C19.67 52 19.34 52 19 52 C19 47.05 19 42.1 19 37 C13.06 37 7.12 37 1 37 C1 48.55 1 60.1 1 72 C0.67 72 0.34 72 0 72 C0 60.45 0 48.9 0 37 C-5.61 37 -11.22 37 -17 37 C-17 35.02 -17 33.04 -17 31 C-16.67 31 -16.34 31 -16 31 C-16 32.65 -16 34.3 -16 36 C-10.72 36 -5.44 36 0 36 C0 24.12 0 12.24 0 0 Z " fill="#2A2A2A" transform="translate(257,443)"/>
<path d="M0 0 C2 2 2 2 2 5 C-0.64 4.67 -3.28 4.34 -6 4 C-6 5.98 -6 7.96 -6 10 C-4.68 10 -3.36 10 -2 10 C-2 9.34 -2 8.68 -2 8 C-0.35 8 1.3 8 3 8 C2.625 10.4375 2.625 10.4375 2 13 C-0.48400602 14.24200301 -1.82207636 13.98221651 -4.5625 13.6875 C-5.77099609 13.56955078 -5.77099609 13.56955078 -7.00390625 13.44921875 C-7.66261719 13.30097656 -8.32132812 13.15273438 -9 13 C-10.49498913 10.01002175 -10.11577446 7.29957225 -10 4 C-9.67 3.01 -9.34 2.02 -9 1 C-5.75778445 -0.08073852 -3.39597063 -0.21676408 0 0 Z " fill="#191919" transform="translate(478,361)"/>
<path d="M0 0 C2.69082872 0.17635452 5.32851446 0.61835921 8 1 C8 2.65 8 4.3 8 6 C7.01 6.33 6.02 6.66 5 7 C4.67 9.64 4.34 12.28 4 15 C2.35 15 0.7 15 -1 15 C-1.02685412 12.68756208 -1.04632841 10.3750373 -1.0625 8.0625 C-1.07410156 6.77472656 -1.08570313 5.48695313 -1.09765625 4.16015625 C-1 1 -1 1 0 0 Z " fill="#171717" transform="translate(539,360)"/>
<path d="M0 0 C0.66 0 1.32 0 2 0 C2 3.3 2 6.6 2 10 C1.34 10 0.68 10 0 10 C-0.33 11.32 -0.66 12.64 -1 14 C-2.65 13.67 -4.3 13.34 -6 13 C-5.67 12.34 -5.34 11.68 -5 11 C-5.515625 10.5875 -6.03125 10.175 -6.5625 9.75 C-7.2740625 8.88375 -7.2740625 8.88375 -8 8 C-7.6875 5.8125 -7.6875 5.8125 -7 4 C-2.25 4.875 -2.25 4.875 0 6 C-0.2784375 4.7934375 -0.2784375 4.7934375 -0.5625 3.5625 C-0.706875 2.716875 -0.85125 1.87125 -1 1 C-0.67 0.67 -0.34 0.34 0 0 Z " fill="#191919" transform="translate(374,526)"/>
<path d="M0 0 C0.34982212 3.14839906 0.24633224 4.62023779 -1.5 7.3125 C-5.12825641 9.76157308 -7.67840225 9.28810652 -12 9 C-12.33 8.01 -12.66 7.02 -13 6 C-13.66 5.67 -14.32 5.34 -15 5 C-12.8765984 4.16260219 -10.7512272 3.33019717 -8.625 2.5 C-7.44164062 2.0359375 -6.25828125 1.571875 -5.0390625 1.09375 C-2 0 -2 0 0 0 Z " fill="#222222" transform="translate(376,498)"/>
<path d="M0 0 C1.32 0.33 2.64 0.66 4 1 C4.33 2.32 4.66 3.64 5 5 C7.97 5 10.94 5 14 5 C14 6.32 14 7.64 14 9 C9.38 9 4.76 9 0 9 C0 6.03 0 3.06 0 0 Z " fill="#1B1B1B" transform="translate(362,541)"/>
<path d="M0 0 C1.98 0.66 3.96 1.32 6 2 C5.85915204 3.79206547 5.71216299 5.58364917 5.5625 7.375 C5.48128906 8.37273437 5.40007813 9.37046875 5.31640625 10.3984375 C5 13 5 13 4 15 C2.68 15 1.36 15 0 15 C0 10.05 0 5.1 0 0 Z " fill="#1C1C1C" transform="translate(565,360)"/>
<path d="M0 0 C11.55 0 23.1 0 35 0 C34.67 0.99 34.34 1.98 34 3 C22.78 3 11.56 3 0 3 C0 2.01 0 1.02 0 0 Z " fill="#EFEFEF" transform="translate(258,256)"/>
<path d="M0 0 C1.32 0 2.64 0 4 0 C4 5.94 4 11.88 4 18 C2.68 18 1.36 18 0 18 C0 12.06 0 6.12 0 0 Z " fill="#1B1B1B" transform="translate(500,357)"/>
<path d="M0 0 C1.02480469 0.04833984 2.04960937 0.09667969 3.10546875 0.14648438 C4.70068359 0.2305957 4.70068359 0.2305957 6.328125 0.31640625 C7.40707031 0.36861328 8.48601562 0.42082031 9.59765625 0.47460938 C12.25811922 0.60410094 14.91818952 0.73905986 17.578125 0.87890625 C17.248125 1.53890625 16.918125 2.19890625 16.578125 2.87890625 C15.95768311 2.89872559 15.33724121 2.91854492 14.69799805 2.93896484 C11.88677963 3.0342247 9.07630334 3.14389927 6.265625 3.25390625 C5.28916016 3.28484375 4.31269531 3.31578125 3.30664062 3.34765625 C1.89995117 3.40566406 1.89995117 3.40566406 0.46484375 3.46484375 C-0.39923096 3.49626465 -1.26330566 3.52768555 -2.15356445 3.56005859 C-4.69929945 3.75078662 -4.69929945 3.75078662 -7.421875 5.87890625 C-8.081875 4.22890625 -8.741875 2.57890625 -9.421875 0.87890625 C-6.16929474 -0.11493772 -3.38722129 -0.16936106 0 0 Z " fill="#1D1D1D" transform="translate(498.421875,256.12109375)"/>
<path d="M0 0 C2.31 0 4.62 0 7 0 C7 0.66 7 1.32 7 2 C5.68 2.33 4.36 2.66 3 3 C3.66 5.97 4.32 8.94 5 12 C0.125 11.125 0.125 11.125 -1 10 C-1.13568319 6.33655389 -1.16461426 3.49384279 0 0 Z " fill="#1B1B1B" transform="translate(549,362)"/>
<path d="M0 0 C0.33 0 0.66 0 1 0 C1 8.91 1 17.82 1 27 C-0.32 25.68 -1.64 24.36 -3 23 C-2.76757812 21.01831055 -2.76757812 21.01831055 -2 19 C-1.87057259 17.57179525 -1.7784704 16.13984447 -1.71875 14.70703125 C-1.68136719 13.91232422 -1.64398438 13.11761719 -1.60546875 12.29882812 C-1.53466004 10.62957827 -1.46435444 8.960307 -1.39453125 7.29101562 C-1.10197685 1.10197685 -1.10197685 1.10197685 0 0 Z " fill="#242424" transform="translate(479,221)"/>
<path d="M0 0 C0.66 0.33 1.32 0.66 2 1 C2.58984375 4.01953125 2.58984375 4.01953125 2.9375 7.8125 C3.07027344 9.05644531 3.20304687 10.30039063 3.33984375 11.58203125 C3 15 3 15 0.50390625 17.44921875 C-0.32238281 17.96097656 -1.14867187 18.47273438 -2 19 C-2.33 18.01 -2.66 17.02 -3 16 C-2.67 15.67 -2.34 15.34 -2 15 C-1.79031249 12.67013877 -1.63184611 10.33555964 -1.5 8 C-1.11111111 1.11111111 -1.11111111 1.11111111 0 0 Z " fill="#0F0F0F" transform="translate(257,220)"/>
<path d="M0 0 C3.39576062 -0.05830787 6.7913915 -0.09369946 10.1875 -0.125 C11.14720703 -0.14175781 12.10691406 -0.15851563 13.09570312 -0.17578125 C14.02705078 -0.18222656 14.95839844 -0.18867188 15.91796875 -0.1953125 C16.77156982 -0.20578613 17.6251709 -0.21625977 18.50463867 -0.22705078 C21.30726815 0.02795806 23.44729419 0.84458578 26 2 C26 2.33 26 2.66 26 3 C17.09 3 8.18 3 -1 3 C-0.67 2.01 -0.34 1.02 0 0 Z " fill="#EFEFEF" transform="translate(444,256)"/>
<path d="M0 0 C4.96916636 0.51405169 9.29026351 1.23384882 14 3 C12.02 3.99 12.02 3.99 10 5 C10 5.66 10 6.32 10 7 C5.56541027 5.6062718 3.12621626 3.39417765 0 0 Z " fill="#CDCDCD" transform="translate(422,215)"/>
<path d="M0 0 C1.90608098 3.21182149 2.22266247 5.53882603 2.125 9.25 C2.10695313 10.14203125 2.08890625 11.0340625 2.0703125 11.953125 C2.03550781 12.96632813 2.03550781 12.96632813 2 14 C0.68 14 -0.64 14 -2 14 C-2.33 14.99 -2.66 15.98 -3 17 C-2.25339288 11.27601207 -1.17122859 5.65146223 0 0 Z " fill="#2F2F2F" transform="translate(265,360)"/>
<path d="M0 0 C0.66 0.33 1.32 0.66 2 1 C2 3.64 2 6.28 2 9 C1.01 9.495 1.01 9.495 0 10 C0 9.01 0 8.02 0 7 C-0.5775 7.350625 -1.155 7.70125 -1.75 8.0625 C-4.35801776 9.14917407 -5.39417629 8.93065133 -8 8 C-8 7.01 -8 6.02 -8 5 C-5.36 4.67 -2.72 4.34 0 4 C0 2.68 0 1.36 0 0 Z " fill="#0F0F0F" transform="translate(518,363)"/>
<path d="M0 0 C0.66 0 1.32 0 2 0 C2 1.65 2 3.3 2 5 C-0.95664519 6.4783226 -3.74229737 6.06032783 -7 6 C-7 5.34 -7 4.68 -7 4 C-7.66 4 -8.32 4 -9 4 C-9 3.34 -9 2.68 -9 2 C-6.23723823 2.52268466 -3.6739124 3.10869587 -1 4 C-0.67 2.68 -0.34 1.36 0 0 Z " fill="#1E1E1E" transform="translate(463,368)"/>
<path d="M0 0 C0.33 0.99 0.66 1.98 1 3 C1.99 3.33 2.98 3.66 4 4 C4 4.66 4 5.32 4 6 C3.37351562 5.97679687 2.74703125 5.95359375 2.1015625 5.9296875 C1.28429687 5.91164062 0.46703125 5.89359375 -0.375 5.875 C-1.59316406 5.84019531 -1.59316406 5.84019531 -2.8359375 5.8046875 C-5.21342243 5.78629949 -5.21342243 5.78629949 -7 8 C-7.46162427 10.43252661 -7.46162427 10.43252661 -7.625 13.125 C-7.69976562 14.03507813 -7.77453125 14.94515625 -7.8515625 15.8828125 C-7.90054687 16.58148438 -7.94953125 17.28015625 -8 18 C-8.33 18 -8.66 18 -9 18 C-9.08114106 16.22992286 -9.13925505 14.45877902 -9.1875 12.6875 C-9.22230469 11.70136719 -9.25710938 10.71523437 -9.29296875 9.69921875 C-9 7 -9 7 -7.65625 5.1875 C-5.51324205 3.65100373 -3.5870256 3.34959805 -1 3 C-0.67 2.01 -0.34 1.02 0 0 Z " fill="#0D0D0D" transform="translate(371,192)"/>
<path d="M0 0 C1.2065625 0.0309375 1.2065625 0.0309375 2.4375 0.0625 C2.4375 2.0425 2.4375 4.0225 2.4375 6.0625 C0.7875 6.0625 -0.8625 6.0625 -2.5625 6.0625 C-2.94468767 4.40635343 -3.27645102 2.73792976 -3.5625 1.0625 C-2.5625 0.0625 -2.5625 0.0625 0 0 Z " fill="#070707" transform="translate(369.5625,173.9375)"/>
<path d="M0 0 C5.61 0 11.22 0 17 0 C14 3 14 3 10.8984375 3.14453125 C9.73570312 3.03496094 8.57296875 2.92539062 7.375 2.8125 C6.20710937 2.71582031 5.03921875 2.61914062 3.8359375 2.51953125 C2.43214844 2.26236328 2.43214844 2.26236328 1 2 C0.67 1.34 0.34 0.68 0 0 Z " fill="#1F1F1F" transform="translate(220,257)"/>
<path d="M0 0 C1.98 0 3.96 0 6 0 C6 1.65 6 3.3 6 5 C2.25 6.125 2.25 6.125 0 5 C0 3.35 0 1.7 0 0 Z " fill="#070707" transform="translate(366,557)"/>
<path d="M0 0 C1.98 0 3.96 0 6 0 C6 1.65 6 3.3 6 5 C4.125 5.625 4.125 5.625 2 6 C1.34 5.34 0.68 4.68 0 4 C0 2.68 0 1.36 0 0 Z " fill="#060606" transform="translate(552,365)"/>
<path d="M0 0 C1.67542976 0.28604898 3.34385343 0.61781233 5 1 C5 2.32 5 3.64 5 5 C3.35 5.33 1.7 5.66 0 6 C-0.38218767 4.34385343 -0.71395102 2.67542976 -1 1 C-0.67 0.67 -0.34 0.34 0 0 Z " fill="#050505" transform="translate(367,530)"/>
<path d="M0 0 C1.67542976 0.28604898 3.34385343 0.61781233 5 1 C5 2.32 5 3.64 5 5 C3.35 5.33 1.7 5.66 0 6 C-0.38218767 4.34385343 -0.71395102 2.67542976 -1 1 C-0.67 0.67 -0.34 0.34 0 0 Z " fill="#050505" transform="translate(488,365)"/>
<path d="M0 0 C-0.33 1.65 -0.66 3.3 -1 5 C-2.65 4.67 -4.3 4.34 -6 4 C-6 2.68 -6 1.36 -6 0 C-3.50907189 -1.24546405 -2.58919267 -0.7767578 0 0 Z " fill="#050505" transform="translate(372,234)"/>
<path d="M0 0 C0.99 0 1.98 0 3 0 C3.33 1.65 3.66 3.3 4 5 C0.25 6.125 0.25 6.125 -2 5 C-1.125 1.125 -1.125 1.125 0 0 Z " fill="#050505" transform="translate(368,200)"/>
<path d="M0 0 C0.99 0.33 1.98 0.66 3 1 C3 2.65 3 4.3 3 6 C1.35 5.67 -0.3 5.34 -2 5 C-2 3.68 -2 2.36 -2 1 C-1.34 0.67 -0.68 0.34 0 0 Z " fill="#040404" transform="translate(528,365)"/>
<path d="M0 0 C2.31 0 4.62 0 7 0 C7.33 1.98 7.66 3.96 8 6 C6.68 5.67 5.36 5.34 4 5 C4.33 4.01 4.66 3.02 5 2 C3.02 2 1.04 2 -1 2 C-0.67 1.34 -0.34 0.68 0 0 Z " fill="#1E1E1E" transform="translate(511,362)"/>
<path d="M0 0 C0 1.32 0 2.64 0 4 C-2.31 4 -4.62 4 -7 4 C-7 3.01 -7 2.02 -7 1 C-2.25 0 -2.25 0 0 0 Z " fill="#0B0B0B" transform="translate(280,373)"/>
<path d="M0 0 C0.66 0.33 1.32 0.66 2 1 C0.53471687 4.86301917 -1.44692439 6.04580842 -5 8 C-5.66 8.66 -6.32 9.32 -7 10 C-7 7 -7 7 -5.46875 5.17578125 C-4.8190625 4.56089844 -4.169375 3.94601562 -3.5 3.3125 C-2.8503125 2.68988281 -2.200625 2.06726563 -1.53125 1.42578125 C-0.77328125 0.72001953 -0.77328125 0.72001953 0 0 Z " fill="#0D0D0D" transform="translate(434,456)"/>
<path d="M0 0 C1.32 0 2.64 0 4 0 C4.33 1.32 4.66 2.64 5 4 C3.35 4.33 1.7 4.66 0 5 C0 3.35 0 1.7 0 0 Z " fill="#030303" transform="translate(274,365)"/>
<path d="M0 0 C0.33 1.32 0.66 2.64 1 4 C-0.32 4.33 -1.64 4.66 -3 5 C-3 4.01 -3 3.02 -3 2 C-2.01 1.34 -1.02 0.68 0 0 Z M-5 5 C-2.03 5.495 -2.03 5.495 1 6 C1 6.33 1 6.66 1 7 C-0.98 7 -2.96 7 -5 7 C-5 6.34 -5 5.68 -5 5 Z " fill="#363636" transform="translate(373,560)"/>
<path d="M0 0 C0.66 0.33 1.32 0.66 2 1 C1.43628586 4.26954202 0.50037734 5.82575883 -2 8 C-2.6875 6.25 -2.6875 6.25 -3 4 C-1.5625 1.75 -1.5625 1.75 0 0 Z " fill="#141414" transform="translate(524,482)"/>
<path d="M0 0 C1.875 0.3125 1.875 0.3125 4 1 C4.66 1.99 5.32 2.98 6 4 C4.35 4.33 2.7 4.66 1 5 C1 4.34 1 3.68 1 3 C0.34 2.67 -0.32 2.34 -1 2 C-0.67 1.34 -0.34 0.68 0 0 Z " fill="#D1D1D1" transform="translate(483,254)"/>
<path d="M0 0 C-0.33 1.65 -0.66 3.3 -1 5 C-4 5 -4 5 -7 4 C-5.53303752 1.06607504 -3.25996861 0 0 0 Z " fill="#F1F1F1" transform="translate(257,240)"/>
<path d="M0 0 C0.33 0 0.66 0 1 0 C1.33 4.62 1.66 9.24 2 14 C1.01 14.66 0.02 15.32 -1 16 C-0.67 10.72 -0.34 5.44 0 0 Z " fill="#2F2F2F" transform="translate(257,222)"/>
<path d="M0 0 C2.09350689 3.4019487 2.17942163 6.05272412 2 10 C1.67 9.34 1.34 8.68 1 8 C0.34 8 -0.32 8 -1 8 C-0.67 5.36 -0.34 2.72 0 0 Z " fill="#3A3A3A" transform="translate(265,360)"/>
<path d="M0 0 C1.32 0.66 2.64 1.32 4 2 C2.68 3.32 1.36 4.64 0 6 C-0.38218767 4.34385343 -0.71395102 2.67542976 -1 1 C-0.67 0.67 -0.34 0.34 0 0 Z " fill="#EAEAEA" transform="translate(209,219)"/>
<path d="M0 0 C2.97 0 5.94 0 9 0 C6.08235 1.9451 4.37462715 2.45276317 1 3 C0.67 2.01 0.34 1.02 0 0 Z " fill="#353535" transform="translate(368,165)"/>
</svg>
